<svg width="64" height="64" viewBox="0 0 64 64" fill="none" xmlns="http://www.w3.org/2000/svg">
	<defs>
		<linearGradient id="tile" x1="10" y1="8" x2="54" y2="56" gradientUnits="userSpaceOnUse">
			<stop stop-color="#2A1012"/>
			<stop offset="1" stop-color="#120B12"/>
		</linearGradient>
		<linearGradient id="overlay" x1="12" y1="10" x2="52" y2="54" gradientUnits="userSpaceOnUse">
			<stop stop-color="#EF4444" stop-opacity="0.22"/>
			<stop offset="1" stop-color="#EF4444" stop-opacity="0.05"/>
		</linearGradient>
		<filter id="glow" x="0" y="0" width="64" height="64" filterUnits="userSpaceOnUse" color-interpolation-filters="sRGB">
			<feFlood flood-opacity="0" result="BackgroundImageFix"/>
			<feBlend in="SourceGraphic" in2="BackgroundImageFix" result="shape"/>
			<feGaussianBlur stdDeviation="3.5" result="effect1_foregroundBlur_1_1"/>
		</filter>
	</defs>

	<g filter="url(#glow)">
		<rect x="6" y="6" width="52" height="52" rx="16" fill="#EF4444" fill-opacity="0.10"/>
	</g>

	<rect x="4" y="4" width="56" height="56" rx="18" fill="url(#tile)"/>
	<rect x="4" y="4" width="56" height="56" rx="18" fill="url(#overlay)"/>
	<rect x="4.75" y="4.75" width="54.5" height="54.5" rx="17.25" stroke="#EF4444" stroke-opacity="0.25" stroke-width="1.5"/>

	<g transform="translate(16 16) scale(1.3333333)">
		<path d="M20 13C20 18 16.5 20.5 12.34 21.95C12.1238 22.0254 11.8887 22.0219 11.675 21.94C7.5 20.34 4 17.84 4 13V6C4 5.44772 4.44772 5 5 5C7 5 9.5 3.8 11.24 2.28C11.6818 1.89436 12.3382 1.89436 12.78 2.28C14.51 3.81 17 5 19 5C19.5523 5 20 5.44772 20 6V13Z" stroke="#EF4444" stroke-width="2" stroke-linecap="round" stroke-linejoin="round"/>
	</g>
</svg>