<svg width="512" height="512" viewBox="0 0 512 512" fill="none" xmlns="http://www.w3.org/2000/svg">
  <defs>
    <linearGradient id="tile" x1="80" y1="64" x2="432" y2="448" gradientUnits="userSpaceOnUse">
      <stop stop-color="#2A1012"/>
      <stop offset="1" stop-color="#120B12"/>
    </linearGradient>
    <linearGradient id="overlay" x1="92" y1="84" x2="420" y2="432" gradientUnits="userSpaceOnUse">
      <stop stop-color="#EF4444" stop-opacity="0.22"/>
      <stop offset="1" stop-color="#EF4444" stop-opacity="0.05"/>
    </linearGradient>
    <filter id="glow" x="20" y="20" width="472" height="472" filterUnits="userSpaceOnUse" color-interpolation-filters="sRGB">
      <feFlood flood-opacity="0" result="BackgroundImageFix"/>
      <feBlend in="SourceGraphic" in2="BackgroundImageFix" result="shape"/>
      <feGaussianBlur stdDeviation="18" result="effect1_foregroundBlur_1_1"/>
    </filter>
  </defs>

  <g filter="url(#glow)">
    <rect x="56" y="56" width="400" height="400" rx="112" fill="#EF4444" fill-opacity="0.10"/>
  </g>

  <rect x="40" y="40" width="432" height="432" rx="120" fill="url(#tile)"/>
  <rect x="40" y="40" width="432" height="432" rx="120" fill="url(#overlay)"/>
  <rect x="46" y="46" width="420" height="420" rx="114" stroke="#EF4444" stroke-opacity="0.25" stroke-width="12"/>

  <g transform="translate(128 128) scale(10.6666667)">
    <path d="M20 13C20 18 16.5 20.5 12.34 21.95C12.1238 22.0254 11.8887 22.0219 11.675 21.94C7.5 20.34 4 17.84 4 13V6C4 5.44772 4.44772 5 5 5C7 5 9.5 3.8 11.24 2.28C11.6818 1.89436 12.3382 1.89436 12.78 2.28C14.51 3.81 17 5 19 5C19.5523 5 20 5.44772 20 6V13Z" stroke="#EF4444" stroke-width="2" stroke-linecap="round" stroke-linejoin="round"/>
  </g>
</svg>